<svg width="93" height="55" viewBox="0 0 93 55" fill="none" xmlns="http://www.w3.org/2000/svg">
<path fill-rule="evenodd" clip-rule="evenodd" d="M59.2971 0C55.5339 0 52.0865 1.35215 49.4143 3.59711C46.742 1.35215 43.2946 0 39.5314 0C33.9778 0 29.1119 2.94488 26.4102 7.35828C25.0206 6.86 23.5229 6.58855 21.9619 6.58855C15.183 6.58855 9.5996 11.7075 8.86637 18.2908C3.70581 20.0765 -7.62939e-06 24.9788 -7.62939e-06 30.7466C-7.62939e-06 38.0242 5.8996 43.9238 13.1771 43.9238C14.0611 43.9238 14.9247 43.8367 15.7599 43.6708C18.5169 47.7958 23.2165 50.5124 28.5505 50.5124C31.5938 50.5124 34.4305 49.6281 36.8178 48.1024C40.8173 52.2935 46.458 54.9048 52.7086 54.9048C54.3539 54.9048 55.957 54.7238 57.499 54.3808C58.7727 54.7225 60.1118 54.9048 61.4933 54.9048C66.813 54.9048 71.5016 52.2028 74.2616 48.0964C75.1084 48.2409 75.9787 48.3162 76.8667 48.3162C85.3571 48.3162 92.24 41.4333 92.24 32.9428C92.24 27.7133 89.6289 23.0937 85.6392 20.3166C85.3531 13.8995 80.06 8.78475 73.5724 8.78475C73.4457 8.78475 73.3195 8.7867 73.1938 8.79057C70.7277 3.59357 65.4321 0 59.2971 0Z" fill="white" fill-opacity="0.5"/>
</svg>
